<svg viewBox="0 0 1400 900" xmlns="http://www.w3.org/2000/svg" role="img" aria-label="Guitarra custom build Trastes">
  <defs>
    <linearGradient id="bg" x1="0" y1="0" x2="1" y2="1">
      <stop offset="0%" stop-color="#1c1712"/>
      <stop offset="100%" stop-color="#0d0b09"/>
    </linearGradient>
    <radialGradient id="glow" cx="30%" cy="25%" r="65%">
      <stop offset="0%" stop-color="#c6531e" stop-opacity="0.35"/>
      <stop offset="100%" stop-color="#c6531e" stop-opacity="0"/>
    </radialGradient>
    <linearGradient id="wood" x1="0" y1="0" x2="0" y2="1">
      <stop offset="0%" stop-color="#c6531e"/>
      <stop offset="100%" stop-color="#8f3518"/>
    </linearGradient>
  </defs>
  <rect width="1400" height="900" fill="url(#bg)"/>
  <rect width="1400" height="900" fill="url(#glow)"/>
  <g opacity="0.06" stroke="#f4f0e9" stroke-width="1">
    <line x1="0" y1="150" x2="1400" y2="150"/>
    <line x1="0" y1="300" x2="1400" y2="300"/>
    <line x1="0" y1="450" x2="1400" y2="450"/>
    <line x1="0" y1="600" x2="1400" y2="600"/>
    <line x1="0" y1="750" x2="1400" y2="750"/>
  </g>
  <g transform="translate(700,470) rotate(-8)">
    <ellipse cx="0" cy="150" rx="230" ry="260" fill="url(#wood)" opacity="0.92"/>
    <ellipse cx="0" cy="-40" rx="150" ry="170" fill="url(#wood)" opacity="0.92"/>
    <ellipse cx="0" cy="60" rx="55" ry="55" fill="#0d0b09"/>
    <rect x="-22" y="-430" width="44" height="420" rx="10" fill="#1a1512"/>
    <rect x="-30" y="-470" width="60" height="60" rx="8" fill="#0d0b09"/>
    <g stroke="#f4f0e9" stroke-width="2" opacity="0.55">
      <line x1="-10" y1="-420" x2="-10" y2="300"/>
      <line x1="-3" y1="-420" x2="-3" y2="300"/>
      <line x1="4" y1="-420" x2="4" y2="300"/>
      <line x1="11" y1="-420" x2="11" y2="300"/>
    </g>
  </g>
  <text x="70" y="820" font-family="Inter, Arial, sans-serif" font-size="13" letter-spacing="3" fill="#f4f0e9" opacity="0.4" text-transform="uppercase">TRASTES — CUSTOM BUILD — HECHA A MANO</text>
</svg>
