<svg viewBox="0 0 300 620" xmlns="http://www.w3.org/2000/svg">
  <g transform="translate(150,150)">
    <!-- headstock -->
    <rect x="-26" y="-150" width="52" height="66" rx="10" fill="#8f3518"/>
    <circle cx="-14" cy="-130" r="4" fill="#f4f0e9"/>
    <circle cx="14" cy="-130" r="4" fill="#f4f0e9"/>
    <circle cx="-14" cy="-108" r="4" fill="#f4f0e9"/>
    <circle cx="14" cy="-108" r="4" fill="#f4f0e9"/>
    <!-- neck -->
    <rect x="-13" y="-86" width="26" height="270" fill="#8f3518"/>
    <g stroke="#f4f0e9" stroke-width="1.4" opacity="0.55">
      <line x1="-13" y1="-60" x2="13" y2="-60"/>
      <line x1="-13" y1="-30" x2="13" y2="-30"/>
      <line x1="-13" y1="0" x2="13" y2="0"/>
      <line x1="-13" y1="30" x2="13" y2="30"/>
      <line x1="-13" y1="60" x2="13" y2="60"/>
      <line x1="-13" y1="90" x2="13" y2="90"/>
      <line x1="-13" y1="120" x2="13" y2="120"/>
      <line x1="-13" y1="150" x2="13" y2="150"/>
    </g>
    <!-- body -->
    <ellipse cx="0" cy="270" rx="98" ry="90" fill="#e7c98f"/>
    <ellipse cx="0" cy="370" rx="118" ry="108" fill="#e7c98f"/>
    <ellipse cx="0" cy="330" rx="34" ry="34" fill="#0d0b09" opacity="0.85"/>
    <rect x="-58" y="240" width="116" height="10" rx="5" fill="#8f3518" opacity="0.9"/>
  </g>
</svg>
