<svg viewBox="0 0 480 900" xmlns="http://www.w3.org/2000/svg">
  <path d="M 240 400 C 210 400 204 412 200 428 C 190 458 145 452 108 466 C 78 478 74 502 92 514 C 108 524 106 540 86 556 C 58 578 50 615 62 660 C 72 710 96 746 132 768 C 168 789 202 796 240 797 C 284 796 324 787 358 760 C 392 732 404 692 402 642 C 400 596 388 566 364 552 C 348 542 350 526 368 512 C 390 496 388 468 356 458 C 318 448 282 452 274 426 C 270 412 262 400 240 400 Z" fill="#4a3323" stroke="#17140f" stroke-width="3"/>
</svg>
