<svg viewBox="0 0 480 900" xmlns="http://www.w3.org/2000/svg">
  <path d="M 240 400 C 214 400 206 410 202 424 C 192 452 160 450 122 470 C 90 487 88 512 108 522 C 122 529 120 536 104 548 C 70 570 58 605 66 655 C 72 708 90 744 128 768 C 166 790 202 797 240 798 C 282 797 320 789 356 764 C 392 738 406 700 410 648 C 414 596 400 558 372 540 C 356 530 356 522 372 512 C 394 500 392 472 360 464 C 320 454 280 450 274 424 C 270 410 262 400 240 400 Z" fill="#c9a877" stroke="#17140f" stroke-width="3"/>
</svg>
