<svg viewBox="0 0 480 900" xmlns="http://www.w3.org/2000/svg">
  <path d="M 240 400 C 218 400 208 408 205 420 C 198 448 155 452 112 462 C 82 470 80 500 96 512 C 112 522 112 528 98 540 C 72 558 62 598 70 650 C 76 706 92 742 128 766 C 164 789 200 796 240 797 C 280 796 316 789 352 766 C 388 742 404 706 410 650 C 418 598 408 558 382 540 C 368 528 368 522 384 512 C 400 500 398 470 368 462 C 325 452 282 448 275 420 C 272 408 262 400 240 400 Z" fill="#8a4a34" stroke="#17140f" stroke-width="3"/>
</svg>
